<svg xmlns="http://www.w3.org/2000/svg" version="1.1" xmlns:xlink="http://www.w3.org/1999/xlink" xmlns:svgjs="http://svgjs.com/svgjs" width="1440" height="560" preserveAspectRatio="none" viewBox="0 0 1440 560"><g mask="url(&quot;#SvgjsMask3754&quot;)" fill="none"><rect width="1440" height="560" x="0" y="0" fill="url(#SvgjsLinearGradient3755)"></rect><path d="M857.519,734.952C911.431,736.488,963.333,711.874,991.872,666.11C1022.15,617.558,1032.048,553.701,1000.191,506.17C970.69,462.155,910.492,464.421,857.519,465.655C807.619,466.818,752.527,470.332,725.917,512.561C697.998,556.868,709.133,613.744,735.804,658.814C761.926,702.956,806.248,733.491,857.519,734.952" fill="rgba(28, 83, 142, 0.4)" class="triangle-float2"></path><path d="M852.6757646253611 398.00086706893444L916.0299372893066 273.9536992154035 794.3435376099335 278.2030819288875z" fill="rgba(28, 83, 142, 0.4)" class="triangle-float2"></path><path d="M1083.1094416343765 88.75100048081075L965.8139343733272 136.14146158691267 1013.2043954794292 253.4369688479619 1130.4999027404783 206.04650774185995z" fill="rgba(28, 83, 142, 0.4)" class="triangle-float3"></path><path d="M253.66576368645445 516.5535940354903L418.58433253611184 545.6331873435114 447.66392584413296 380.714618493854 282.74535699447557 351.6350251858329z" fill="rgba(28, 83, 142, 0.4)" class="triangle-float2"></path><path d="M414.9289813082127-72.20451960645612L297.5681509817099-19.952111413469083 349.8205591746969 97.40871891303375 467.18138950119976 45.15631072004672z" fill="rgba(28, 83, 142, 0.4)" class="triangle-float3"></path><path d="M1031.1869581513429 197.95113420724624L996.9712991659695 297.32062321941396 1096.3407881781372 331.5362822047873 1130.5564471635107 232.1667931926196z" fill="rgba(28, 83, 142, 0.4)" class="triangle-float1"></path><path d="M1327.4395837858067 483.6870738222418L1200.9472557780718 410.6566941965537 1127.9168761523838 537.1490222042886 1254.4092041601186 610.1794018299767z" fill="rgba(28, 83, 142, 0.4)" class="triangle-float3"></path><path d="M101.8219751004522-27.335111080341292L136.38353388144566 62.957936776609635 190.7086917235996-1.7842652500248946z" fill="rgba(28, 83, 142, 0.4)" class="triangle-float1"></path><path d="M700.2084580388076 57.18072026666779L751.9461176490032 207.43779409208634 902.2031914744217 155.70013448189076 850.4655318642261 5.443060656472241z" fill="rgba(28, 83, 142, 0.4)" class="triangle-float3"></path><path d="M1370.749,128.53C1398.508,130.199,1427.403,118.545,1440.521,94.024C1453.103,70.505,1442.863,42.882,1428.64,20.318C1415.553,-0.444,1395.24,-15.065,1370.749,-16.667C1342.924,-18.487,1311.491,-12.662,1298.069,11.779C1284.939,35.69,1299.72,63.268,1314.137,86.426C1327.458,107.824,1345.588,127.017,1370.749,128.53" fill="rgba(28, 83, 142, 0.4)" class="triangle-float1"></path><path d="M884.339610370233 317.626901057323L935.6447832813375 418.31897239941486 1036.3368546234294 367.0137994883104 985.0316817123248 266.3217281462185z" fill="rgba(28, 83, 142, 0.4)" class="triangle-float1"></path><path d="M725.368072034732 410.80949668099885L625.2061145157895 370.3414390123592 584.7380568471499 470.5033965313017 684.9000143660924 510.97145419994126z" fill="rgba(28, 83, 142, 0.4)" class="triangle-float3"></path><path d="M12.189,534.101C41.095,533.543,70.77,526.805,86.784,502.734C104.53,476.06,108.408,441.107,92.589,413.247C76.597,385.083,44.576,371.114,12.189,371.362C-19.74,371.606,-49.808,387.006,-66.107,414.462C-82.751,442.499,-85.423,478.433,-67.569,505.715C-51.007,531.023,-18.051,534.685,12.189,534.101" fill="rgba(28, 83, 142, 0.4)" class="triangle-float3"></path></g><defs><mask id="SvgjsMask3754"><rect width="1440" height="560" fill="#ffffff"></rect></mask><linearGradient x1="50%" y1="100%" x2="50%" y2="0%" gradientUnits="userSpaceOnUse" id="SvgjsLinearGradient3755"><stop stop-color="rgba(255, 0, 206, 1)" offset="0"></stop><stop stop-color="rgba(0, 111, 255, 1)" offset="1"></stop></linearGradient><style>
            @keyframes float1 {
                0%{transform: translate(0, 0)}
                50%{transform: translate(-10px, 0)}
                100%{transform: translate(0, 0)}
            }

            .triangle-float1 {
                animation: float1 5s infinite;
            }

            @keyframes float2 {
                0%{transform: translate(0, 0)}
                50%{transform: translate(-5px, -5px)}
                100%{transform: translate(0, 0)}
            }

            .triangle-float2 {
                animation: float2 4s infinite;
            }

            @keyframes float3 {
                0%{transform: translate(0, 0)}
                50%{transform: translate(0, -10px)}
                100%{transform: translate(0, 0)}
            }

            .triangle-float3 {
                animation: float3 6s infinite;
            }
        </style></defs></svg>