<svg xmlns="http://www.w3.org/2000/svg" version="1.1" xmlns:xlink="http://www.w3.org/1999/xlink" xmlns:svgjs="http://svgjs.com/svgjs" width="1440" height="560" preserveAspectRatio="none" viewBox="0 0 1440 560"><g mask="url(&quot;#SvgjsMask1217&quot;)" fill="none"><rect width="1440" height="560" x="0" y="0" fill="url(#SvgjsLinearGradient1218)"></rect><path d="M315.054,227.558C364.695,228.738,406.867,195.099,431.817,152.168C456.906,108.997,465.503,55.545,439.955,12.644C414.893,-29.442,363.914,-47.378,315.054,-43.906C271.779,-40.831,238.837,-9.341,217.532,28.451C196.687,65.427,188.853,108.718,207.524,146.838C228.654,189.978,267.031,226.417,315.054,227.558" fill="rgba(28, 83, 142, 0.4)" class="triangle-float3"></path><path d="M419.5621590402368 314.6369210243693L272.3178215196024 261.04436500261227 218.7252654978453 408.2887025232467 365.96960301847975 461.88125854500373z" fill="rgba(28, 83, 142, 0.4)" class="triangle-float1"></path><path d="M1141.8092996835628 99.37886466063081L1207.787454250112 180.85510012829235 1223.2855351512244 33.40071009408169z" fill="rgba(28, 83, 142, 0.4)" class="triangle-float3"></path><path d="M1135.0091155339546 47.151968878459506L994.8488830693024 164.532925303862 1144.047637138802 221.80496106323673z" fill="rgba(28, 83, 142, 0.4)" class="triangle-float3"></path><path d="M415.347,217.138C439.115,215.91,459.783,203.143,472.609,183.094C486.694,161.076,496.189,133.54,483.417,110.735C470.439,87.562,441.864,79.338,415.347,80.846C391.46,82.204,372.236,97.537,359.482,117.78C345.595,139.821,334.063,166.885,346.831,189.593C359.761,212.59,388.999,218.499,415.347,217.138" fill="rgba(28, 83, 142, 0.4)" class="triangle-float1"></path><path d="M1235.7188990389373-35.798180371169465L1213.2576427711815 124.02196240313187 1373.0777855454828 146.48321867088754 1395.5390418132386-13.336924103413782z" fill="rgba(28, 83, 142, 0.4)" class="triangle-float3"></path><path d="M906.71,614.305C945.382,612.11,978.929,588.855,997.313,554.762C1014.764,522.399,1012.101,484.055,994.286,451.891C975.84,418.588,944.709,393.509,906.71,391.183C864.348,388.59,821.006,404.002,798.366,439.9C774.298,478.062,772.539,527.845,796.347,566.17C819.046,602.709,863.763,616.743,906.71,614.305" fill="rgba(28, 83, 142, 0.4)" class="triangle-float1"></path><path d="M895.091883044549 234.84259272820574L967.0365722770231 145.99830056722567 878.192280116043 74.05361133475165 806.2475908835689 162.89790349573173z" fill="rgba(28, 83, 142, 0.4)" class="triangle-float1"></path><path d="M1422.1183993716938 377.52780242623544L1489.5970239749433 273.83631099219485 1381.7144870569855 266.29242912114404z" fill="rgba(28, 83, 142, 0.4)" class="triangle-float1"></path><path d="M609.2937615058456 327.2009785457417L703.6312197819377 388.46444027318915 764.8946815093851 294.12698199709706 670.557223233293 232.86352026964965z" fill="rgba(28, 83, 142, 0.4)" class="triangle-float2"></path><path d="M688.6255023208347 608.8703328038107L859.4255893719322 581.9850909418965 766.371735521796 462.8815893630968z" fill="rgba(28, 83, 142, 0.4)" class="triangle-float2"></path><path d="M257.497,203.55C302.733,204.383,345.848,180.324,367.325,140.502C387.857,102.431,379.388,56.639,356.537,19.912C335.07,-14.591,298.049,-33.404,257.497,-36.019C210.889,-39.025,157.488,-34.573,133.548,5.53C109.246,46.24,129.305,96.392,154.461,136.58C177.755,173.794,213.601,202.741,257.497,203.55" fill="rgba(28, 83, 142, 0.4)" class="triangle-float3"></path><path d="M1082.697,604.377C1108.074,604.494,1129.214,586.68,1141.441,564.443C1153.193,543.071,1153.567,517.754,1142.19,496.18C1129.944,472.958,1108.878,454.988,1082.697,453.049C1052.846,450.838,1019.535,459.529,1005.694,486.07C992.45,511.465,1009.261,539.902,1024.885,563.906C1038.638,585.036,1057.485,604.261,1082.697,604.377" fill="rgba(28, 83, 142, 0.4)" class="triangle-float3"></path></g><defs><mask id="SvgjsMask1217"><rect width="1440" height="560" fill="#ffffff"></rect></mask><linearGradient x1="50%" y1="100%" x2="50%" y2="0%" gradientUnits="userSpaceOnUse" id="SvgjsLinearGradient1218"><stop stop-color="#0e2a47" offset="0"></stop><stop stop-color="rgba(20, 93, 187, 1)" offset="1"></stop></linearGradient><style>
            @keyframes float1 {
                0%{transform: translate(0, 0)}
                50%{transform: translate(-10px, 0)}
                100%{transform: translate(0, 0)}
            }

            .triangle-float1 {
                animation: float1 5s infinite;
            }

            @keyframes float2 {
                0%{transform: translate(0, 0)}
                50%{transform: translate(-5px, -5px)}
                100%{transform: translate(0, 0)}
            }

            .triangle-float2 {
                animation: float2 4s infinite;
            }

            @keyframes float3 {
                0%{transform: translate(0, 0)}
                50%{transform: translate(0, -10px)}
                100%{transform: translate(0, 0)}
            }

            .triangle-float3 {
                animation: float3 6s infinite;
            }
        </style></defs></svg>